# xmcd CD database file
#
# Track frame offsets:
#	150
#	14242
#	22061
#	36155
#	49336
#	56817
#	75738
#	86950
#	103024
#
# Disc length: 1746 seconds
#
# Revision: 0
# Processed by: cddbd v1.5.2PL0 Copyright (c) Steve Scherf et al.
# Submitted via: CDex 1.70beta2
#
DISCID=7e06d009
DTITLE=Originalljudet - Originalljudet
DYEAR=2010
DGENRE=Jazz
TTITLE0=Wrap your dream in waltz
TTITLE1=Waltz for Elsa
TTITLE2=Jennys polska
TTITLE3=The oral solution (with pear)
TTITLE4=New sincerity
TTITLE5=The chair, the wheels, the chaos
TTITLE6=After chaos
TTITLE7=Limping Satie melody
TTITLE8=Original sound of man
EXTD=YEAR: 2010
EXTT0=
EXTT1=
EXTT2=
EXTT3=
EXTT4=
EXTT5=
EXTT6=
EXTT7=
EXTT8=
PLAYORDER=
